<svg width="120" height="120" viewBox="0 0 120 120" fill="none" xmlns="http://www.w3.org/2000/svg">
<path d="M66.399 59.7877C66.399 75.3165 53.896 87.9058 38.4724 87.9058C23.0489 87.9058 10.5469 75.3203 10.5469 59.7877C10.5469 44.255 23.0498 31.6706 38.4724 31.6706C53.8951 31.6706 66.399 44.2588 66.399 59.7877ZM97.0347 59.7877C97.0347 74.4062 90.7828 86.2558 83.0714 86.2558C75.3601 86.2558 69.1082 74.4024 69.1082 59.7877C69.1082 45.173 75.3601 33.3196 83.0714 33.3196C90.7828 33.3196 97.0347 45.173 97.0347 59.7877ZM109.565 59.7877C109.565 72.8852 107.366 83.502 104.654 83.502C101.942 83.502 99.7429 72.8814 99.7429 59.7877C99.7429 46.694 101.942 36.0734 104.655 36.0734C107.368 36.0734 109.565 46.6911 109.565 59.7877Z" fill="black"/>
</svg>
