<svg width="119" height="119" viewBox="0 0 119 119" fill="none" xmlns="http://www.w3.org/2000/svg">
<path d="M51.9846 103.474C30.9432 99.7609 14.8527 81.4425 14.8527 59.4109C14.8527 34.9039 34.9039 14.8527 59.4109 14.8527C83.9179 14.8527 103.969 34.9039 103.969 59.4109C103.969 81.4425 87.8787 99.7609 66.8373 103.474L64.3618 101.494H54.46L51.9846 103.474Z" fill="url(#paint0_linear_240_79)"/>
<path d="M76.7391 71.7882L78.7195 59.4109H66.8373V50.7468C66.8373 47.2812 68.0751 44.5582 73.5211 44.5582H79.2146V33.1711C75.9965 32.676 72.5309 32.1809 69.3128 32.1809C59.1634 32.1809 51.9846 38.3695 51.9846 49.5091V59.4109H40.845V71.7882H51.9846V103.226C54.46 103.722 56.9355 103.969 59.411 103.969C61.8864 103.969 64.3619 103.722 66.8373 103.226V71.7882H76.7391Z" fill="white"/>
<defs>
<linearGradient id="paint0_linear_240_79" x1="59.4109" y1="100.885" x2="59.4109" y2="14.8527" gradientUnits="userSpaceOnUse">
<stop stop-color="#0062E0"/>
<stop offset="1" stop-color="#19AFFF"/>
</linearGradient>
</defs>
</svg>
