<svg width="120" height="119" viewBox="0 0 120 119" fill="none" xmlns="http://www.w3.org/2000/svg">
<path d="M17.8765 23.3024C17.8765 20.003 20.5512 17.3283 23.8506 17.3283H96.0679C99.3673 17.3283 102.042 20.003 102.042 23.3024V95.5195C102.042 98.8189 99.3673 101.494 96.0679 101.494H23.8506C20.5512 101.494 17.8765 98.8189 17.8765 95.5195V23.3024Z" fill="#0A66C2"/>
<path d="M36.7678 43.466C40.8002 43.466 44.0691 40.197 44.0691 36.1646C44.0691 32.1322 40.8002 28.8633 36.7678 28.8633C32.7354 28.8633 29.4664 32.1322 29.4664 36.1646C29.4664 40.197 32.7354 43.466 36.7678 43.466Z" fill="white"/>
<path d="M50.7559 48.8619H62.8566V54.4052C62.8566 54.4052 66.1402 47.8379 75.0747 47.8379C83.0446 47.8379 89.6468 51.764 89.6468 63.7313V88.9668H77.107V66.7892C77.107 59.7296 73.3381 58.9532 70.4661 58.9532C64.5058 58.9532 63.4854 64.0943 63.4854 67.71V88.9668H50.7559V48.8619Z" fill="white"/>
<path d="M30.403 48.8619H43.1325V88.9669H30.403V48.8619Z" fill="white"/>
</svg>
