<svg width="119" height="119" viewBox="0 0 119 119" fill="none" xmlns="http://www.w3.org/2000/svg">
<path d="M59.4126 16.2029C47.6784 16.2029 46.2058 16.2543 41.5971 16.464C36.9974 16.6746 33.8577 17.4029 31.1105 18.4714C28.2687 19.575 25.8582 21.0512 23.4566 23.4538C21.0532 25.8554 19.577 28.2661 18.4698 31.107C17.3987 33.8552 16.6696 36.9959 16.4625 41.5939C16.2564 46.2028 16.2024 47.6763 16.2024 59.4109C16.2024 71.1455 16.2546 72.6136 16.4634 77.2225C16.675 81.8223 17.4032 84.9621 18.4707 87.7094C19.5752 90.5512 21.0514 92.9619 23.4539 95.3635C25.8546 97.767 28.2651 99.2468 31.1051 100.35C33.8541 101.419 36.9947 102.147 41.5935 102.358C46.2022 102.568 47.6739 102.619 59.4072 102.619C71.1423 102.619 72.6105 102.568 77.2192 102.358C81.8189 102.147 84.9622 101.419 87.7112 100.35C90.552 99.2468 92.959 97.767 95.3597 95.3635C97.763 92.9619 99.2393 90.5512 100.346 87.7103C101.409 84.9621 102.138 81.8214 102.354 77.2234C102.561 72.6145 102.615 71.1455 102.615 59.4109C102.615 47.6763 102.561 46.2037 102.354 41.5948C102.138 36.995 101.409 33.8552 100.346 31.1079C99.2393 28.2661 97.763 25.8554 95.3597 23.4538C92.9563 21.0503 90.5529 19.5741 87.7085 18.4714C84.9541 17.4029 81.8126 16.6746 77.2129 16.464C72.6042 16.2543 71.1369 16.2029 59.3991 16.2029H59.4126ZM55.5366 23.9894C56.687 23.9876 57.9706 23.9894 59.4126 23.9894C70.9488 23.9894 72.3161 24.0308 76.8717 24.2378C81.0844 24.4305 83.3707 25.1344 84.8938 25.7258C86.9101 26.5089 88.3476 27.4451 89.8589 28.9574C91.3712 30.4697 92.3073 31.9099 93.0922 33.9263C93.6836 35.4476 94.3884 37.734 94.5801 41.9468C94.7872 46.5016 94.8322 47.8699 94.8322 59.401C94.8322 70.9321 94.7872 72.3004 94.5801 76.8552C94.3875 81.068 93.6836 83.3544 93.0922 84.8757C92.3091 86.8921 91.3712 88.3278 89.8589 89.8392C88.3467 91.3515 86.911 92.2877 84.8938 93.0708C83.3725 93.6649 81.0844 94.367 76.8717 94.5597C72.317 94.7667 70.9488 94.8117 59.4126 94.8117C47.8756 94.8117 46.5083 94.7667 41.9536 94.5597C37.7409 94.3652 35.4546 93.6613 33.9306 93.0699C31.9143 92.2868 30.4741 91.3506 28.9619 89.8383C27.4496 88.326 26.5135 86.8894 25.7286 84.8721C25.1372 83.3508 24.4324 81.0644 24.2406 76.8516C24.0336 72.2968 23.9922 70.9285 23.9922 59.3902C23.9922 47.8519 24.0336 46.4908 24.2406 41.936C24.4333 37.7232 25.1372 35.4368 25.7286 33.9137C26.5117 31.8973 27.4496 30.4571 28.9619 28.9448C30.4741 27.4325 31.9143 26.4963 33.9306 25.7114C35.4537 25.1173 37.7409 24.4152 41.9536 24.2216C45.9394 24.0416 47.484 23.9876 55.5366 23.9786V23.9894ZM82.476 31.1637C79.6135 31.1637 77.2912 33.4834 77.2912 36.3468C77.2912 39.2094 79.6135 41.5318 82.476 41.5318C85.3384 41.5318 87.6608 39.2094 87.6608 36.3468C87.6608 33.4843 85.3384 31.1619 82.476 31.1619V31.1637ZM59.4126 37.2218C47.1591 37.2218 37.2242 47.1569 37.2242 59.4109C37.2242 71.6649 47.1591 81.5955 59.4126 81.5955C71.6662 81.5955 81.5975 71.6649 81.5975 59.4109C81.5975 47.1569 71.6653 37.2218 59.4117 37.2218H59.4126ZM59.4126 45.0082C67.3663 45.0082 73.8148 51.4561 73.8148 59.4109C73.8148 67.3648 67.3663 73.8135 59.4126 73.8135C51.4581 73.8135 45.0104 67.3648 45.0104 59.4109C45.0104 51.4561 51.4581 45.0082 59.4126 45.0082Z" fill="url(#paint0_radial_240_78)"/>
<path d="M59.2102 16C47.476 16 46.0034 16.0513 41.3947 16.261C36.795 16.4717 33.6553 17.1999 30.9081 18.2684C28.0664 19.372 25.6558 20.8483 23.2542 23.2508C20.8508 25.6525 19.3746 28.0631 18.2674 30.904C17.1963 33.6523 16.4672 36.7929 16.2601 41.391C16.054 45.9998 16 47.4734 16 59.208C16 70.9425 16.0522 72.4107 16.261 77.0195C16.4726 81.6194 17.2008 84.7592 18.2683 87.5065C19.3728 90.3483 20.849 92.7589 23.2515 95.1606C25.6522 97.564 28.0628 99.0439 30.9027 100.147C33.6517 101.216 36.7923 101.944 41.3911 102.155C45.9998 102.365 47.4715 102.416 59.2048 102.416C70.9399 102.416 72.4081 102.365 77.0168 102.155C81.6165 101.944 84.7598 101.216 87.5088 100.147C90.3496 99.0439 92.7566 97.564 95.1573 95.1606C97.5606 92.7589 99.0369 90.3483 100.144 87.5074C101.206 84.7592 101.935 81.6185 102.151 77.0204C102.358 72.4116 102.412 70.9425 102.412 59.208C102.412 47.4734 102.358 46.0007 102.151 41.3919C101.935 36.792 101.206 33.6522 100.144 30.9049C99.0369 28.0631 97.5606 25.6525 95.1573 23.2508C92.7539 20.8474 90.3505 19.3711 87.5061 18.2684C84.7517 17.1999 81.6102 16.4717 77.0105 16.261C72.4018 16.0513 70.9345 16 59.1967 16H59.2102ZM55.3343 23.7864C56.4846 23.7846 57.7682 23.7864 59.2102 23.7864C70.7464 23.7864 72.1137 23.8278 76.6693 24.0349C80.882 24.2275 83.1683 24.9314 84.6914 25.5229C86.7077 26.306 88.1452 27.2422 89.6565 28.7544C91.1688 30.2667 92.1049 31.707 92.8898 33.7234C93.4812 35.2446 94.186 37.5311 94.3778 41.7438C94.5848 46.2987 94.6298 47.6669 94.6298 59.1981C94.6298 70.7292 94.5848 72.0974 94.3778 76.6523C94.1851 80.865 93.4812 83.1515 92.8898 84.6727C92.1067 86.6891 91.1688 88.1249 89.6565 89.6363C88.1443 91.1485 86.7086 92.0847 84.6914 92.8679C83.1701 93.462 80.882 94.1641 76.6693 94.3567C72.1146 94.5638 70.7464 94.6088 59.2102 94.6088C47.6732 94.6088 46.3059 94.5638 41.7512 94.3567C37.5385 94.1623 35.2522 93.4584 33.7282 92.867C31.7119 92.0838 30.2717 91.1476 28.7595 89.6354C27.2472 88.1231 26.3111 86.6864 25.5262 84.6691C24.9348 83.1479 24.23 80.8614 24.0382 76.6487C23.8312 72.0938 23.7898 70.7256 23.7898 59.1872C23.7898 47.6489 23.8312 46.2879 24.0382 41.733C24.2309 37.5203 24.9348 35.2338 25.5262 33.7108C26.3093 31.6944 27.2472 30.2541 28.7595 28.7418C30.2717 27.2296 31.7119 26.2934 33.7282 25.5085C35.2513 24.9143 37.5385 24.2122 41.7512 24.0187C45.737 23.8386 47.2816 23.7846 55.3343 23.7756V23.7864ZM82.2736 30.9608C79.4112 30.9608 77.0888 33.2805 77.0888 36.1439C77.0888 39.0064 79.4112 41.3289 82.2736 41.3289C85.136 41.3289 87.4584 39.0064 87.4584 36.1439C87.4584 33.2814 85.136 30.959 82.2736 30.959V30.9608ZM59.2102 37.0189C46.9567 37.0189 37.0218 46.954 37.0218 59.208C37.0218 71.4619 46.9567 81.3925 59.2102 81.3925C71.4638 81.3925 81.3951 71.4619 81.3951 59.208C81.3951 46.954 71.4629 37.0189 59.2093 37.0189H59.2102ZM59.2102 44.8053C67.1639 44.8053 73.6125 51.2532 73.6125 59.208C73.6125 67.1618 67.1639 73.6106 59.2102 73.6106C51.2557 73.6106 44.808 67.1618 44.808 59.208C44.808 51.2532 51.2557 44.8053 59.2102 44.8053Z" fill="url(#paint1_radial_240_78)"/>
<defs>
<radialGradient id="paint0_radial_240_78" cx="0" cy="0" r="1" gradientUnits="userSpaceOnUse" gradientTransform="translate(39.1558 109.275) rotate(-90) scale(85.6446 79.6529)">
<stop stop-color="#FFDD55"/>
<stop offset="0.1" stop-color="#FFDD55"/>
<stop offset="0.5" stop-color="#FF543E"/>
<stop offset="1" stop-color="#C837AB"/>
</radialGradient>
<radialGradient id="paint1_radial_240_78" cx="0" cy="0" r="1" gradientUnits="userSpaceOnUse" gradientTransform="translate(1.52547 22.2253) rotate(78.6811) scale(38.2834 157.8)">
<stop stop-color="#3771C8"/>
<stop offset="0.128" stop-color="#3771C8"/>
<stop offset="1" stop-color="#6600FF" stop-opacity="0"/>
</radialGradient>
</defs>
</svg>
